<?xml version="1.0" encoding="UTF-8"?>
<svg id="Calque_1" data-name="Calque 1" xmlns="http://www.w3.org/2000/svg" viewBox="0 0 480 286.28">
  <defs>
    <style>
      .cls-1 {
        fill: #ebe43e;
      }

      .cls-2 {
        fill: #fff;
      }
    </style>
  </defs>
  <rect class="cls-2" width="480" height="286.28"/>
  <rect class="cls-1" y="142.21" width="480" height="144.08"/>
  <path d="m390.65,70.09c2-12.53-4.98-24.05-6.13-36.27-.38-4.02-5.35-6.97-8.54-3.54-15.56,16.76-17.69,39.95-12.16,61.22-38.66,23.59-83.44,35.42-127.5,44.22,28.76-24.33,40.14-60.71,41.47-97.3.5-5.55-6.68-5.95-9.32-2.52-23.34,30.41-54.28,63.22-54.29,103.92-46.41,8.06-93.09,15.95-133.99,41.38,15.75-31.81,15.52-69.63,14.11-104.95-.17-4.26-5.38-6.69-8.54-3.54-33.48,33.49-40.61,82.82-30.79,127.6-14.69,14.46-36.78,32.98-33.36,54.84,53.21,8.59,112.8-11.49,157.23-42.58,3.82-2.75,2.79-9.34-2.52-9.32-47,2.75-97.03,11.13-138.65,33.91,22.51-39.91,67.48-61.77,111.08-73.74,13.97,6.71,173.99,22.08,156.81-5.09-14.69-9.99-31.13-15.16-48.34-16.75,27.91-6.06,55.64-14.81,81.99-25.8,23.41-.22,46.99,2.2,70.32.02,18.75-2.49,36.12-12.25,48.16-26.82,2.99-3.62.29-9.85-4.86-8.36-21.45,6.22-44.94,4.46-67.09,7.51M93.88,226.3c21.1-5.03,42.66-10.09,64.39-12.11-35.45,21.36-76.25,32.82-117.68,32.98,15.88-10.68,34.69-16.43,53.29-20.86Zm-9.11-137.39c1.02,35.04-.48,72.52-21.56,101.42-6.09-35.36-.76-73.03,21.56-101.42Zm156.85-.17c7.46-11.67,15.95-22.7,24.5-33.64-2.05,30.89-17.99,58.3-41.55,77.95,1.61-15.92,8.39-30.76,17.04-44.3Zm47.58,71.72c-38.58,6.93-78.04,3.9-116.63-2.7,38.09-4.43,80.61-13.98,116.63,2.7Zm87.79-114.73c4.48,12.64,6.95,28.05-4.79,37.3-2.32-12.79-1.48-26.07,4.79-37.3Zm27.22,60.65c-14.71.93-29.51-.23-44.24-.24,23.54-12.35,51.87-9.16,78.23-12.43-9.85,7.24-21.54,11.76-33.99,12.68Z"/>
</svg>