<?xml version="1.0" encoding="UTF-8"?>
<svg id="Calque_1" data-name="Calque 1" xmlns="http://www.w3.org/2000/svg" viewBox="0 0 480 286.28">
  <defs>
    <style>
      .cls-1 {
        fill: #ebe43e;
      }
    </style>
  </defs>
  <rect width="480" height="286.28"/>
  <path class="cls-1" d="m160.29,87.69c-.46-3.19-4.88-4.54-7.34-2.99-56.36,35.54-113.86,86.89-114.4,158.98,0,1.29.39,2.31,1.02,3.09-.22,1-.09,1.94.27,2.77.15,2.87,2.56,5.79,6.22,4.97,56.69-12.75,101.87-58.64,113.05-115.77,3.31-16.91,3.62-34.02,1.18-51.05Zm-35.05,104.16c-17.59,24.04-43.21,41.62-71.59,50.29,25.58-42.39,43.64-70.72,79.4-105.01,4.65-4.46-.56-8.86-5.21-4.41-34.31,32.9-53.28,56.88-78.42,97.2,6.94-58.46,54.53-101.42,102.05-132.41,2.95,33.28-6.49,67.34-26.24,94.33Z"/>
  <rect class="cls-1" width="480" height="53"/>
  <path class="cls-1" d="m440.76,86.81c-.46-3.19-4.88-4.54-7.34-2.99-56.36,35.54-113.86,86.89-114.4,158.98,0,1.29.39,2.31,1.02,3.09-.22,1-.09,1.94.27,2.77.15,2.87,2.56,5.79,6.22,4.97,56.69-12.75,101.87-58.64,113.05-115.77,3.31-16.91,3.62-34.02,1.18-51.05Zm-35.05,104.16c-17.59,24.04-43.21,41.62-71.59,50.29,25.58-42.39,43.64-70.72,79.4-105.01,4.65-4.46-.56-8.86-5.21-4.41-34.31,32.9-53.28,56.88-78.42,97.2,6.94-58.46,54.53-101.42,102.05-132.41,2.95,33.28-6.49,67.34-26.24,94.33Z"/>
  <path class="cls-1" d="m300.53,87.33c-.46-3.19-4.88-4.54-7.34-2.99-56.36,35.54-113.86,86.89-114.4,158.98,0,1.29.39,2.31,1.02,3.09-.22,1-.09,1.94.27,2.77.15,2.87,2.56,5.79,6.22,4.97,56.69-12.75,101.87-58.64,113.05-115.77,3.31-16.91,3.62-34.02,1.18-51.05Zm-35.05,104.16c-17.59,24.04-43.21,41.62-71.59,50.29,25.58-42.39,43.64-70.72,79.4-105.01,4.65-4.46-.56-8.86-5.21-4.41-34.31,32.9-53.28,56.88-78.42,97.2,6.94-58.46,54.53-101.42,102.05-132.41,2.95,33.28-6.49,67.34-26.24,94.33Z"/>
</svg>