<?xml version="1.0" encoding="UTF-8"?>
<svg id="Calque_1" data-name="Calque 1" xmlns="http://www.w3.org/2000/svg" viewBox="0 0 480 286.28">
  <defs>
    <style>
      .cls-1 {
        fill: #ebe43e;
      }

      .cls-2 {
        fill: #fff;
      }
    </style>
  </defs>
  <rect class="cls-1" width="480" height="286.28"/>
  <rect width="480" height="143.14"/>
  <path class="cls-2" d="m136.72,114.71c-.86-6.33-4.55-11.28-7.93-16.51-3.82-5.91-8.03-11.9-11.08-18.25-2.83-5.88-1.84-12.07-1.49-18.29,2.81-.47,5.4-1.83,7.62-4.04,3.02-3.01.83-8.63-3.54-8.54-17.08.37-34.07,1.74-51,3.98-.01,0-.02,0-.04,0,0,0,0,0,0,0-.44.06-.89.11-1.33.17-5.86.79-3.96,9.49,1.33,9.82,5.31.33,1.83,17.13.58,19.86-2.86,6.22-7.82,11.23-10.68,17.54-5.6,12.35-7.34,25.89-8.46,39.28-2.7,31.99-4.85,64.03-7.26,96.04-.19,2.57,1.29,4.1,3.17,4.61.73,1.36,2.13,2.31,4.21,2.15,26.89-2.08,53.85-3.19,80.82-3.31,2.71-.01,4.99-2.28,5-5,.12-32.43.24-64.86.36-97.29.03-7.31.71-14.96-.27-22.22Zm-74.97,14.74c.97-7.5,2.51-15.03,5.28-22.09,2.89-7.36,8.4-12.9,11.74-19.92,3.07-6.45,4.78-17.86,1.78-25.76,8.57-.94,17.16-1.63,25.76-2.07-.11,6.21-1.31,12.4.16,18.57,1.58,6.64,5.82,12.51,9.37,18.22,3.47,5.59,9.05,11.66,10.74,18.1,1.8,6.86.45,15.4.42,22.44-.11,30.78-.22,61.56-.34,92.34-24.35.22-48.68,1.24-72.96,3.06,1.29-17.14,2.59-34.29,3.88-51.43,1.29-17.12,1.97-34.42,4.18-51.44Z"/>
  <path class="cls-2" d="m432.87,114.71c-.86-6.33-4.55-11.28-7.93-16.51-3.82-5.91-8.03-11.9-11.08-18.25-2.83-5.88-1.84-12.07-1.49-18.29,2.81-.47,5.4-1.83,7.62-4.04,3.02-3.01.83-8.63-3.54-8.54-17.08.37-34.07,1.74-51,3.98-.01,0-.02,0-.04,0,0,0,0,0,0,0-.44.06-.89.11-1.33.17-5.86.79-3.96,9.49,1.33,9.82,5.31.33,1.83,17.13.58,19.86-2.86,6.22-7.82,11.23-10.68,17.54-5.6,12.35-7.34,25.89-8.46,39.28-2.7,31.99-4.85,64.03-7.26,96.04-.19,2.57,1.29,4.1,3.17,4.61.73,1.36,2.13,2.31,4.21,2.15,26.89-2.08,53.85-3.19,80.82-3.31,2.71-.01,4.99-2.28,5-5,.12-32.43.24-64.86.36-97.29.03-7.31.71-14.96-.27-22.22Zm-74.97,14.74c.97-7.5,2.51-15.03,5.28-22.09,2.89-7.36,8.4-12.9,11.74-19.92,3.07-6.45,4.78-17.86,1.78-25.76,8.57-.94,17.16-1.63,25.76-2.07-.11,6.21-1.31,12.4.16,18.57,1.58,6.64,5.82,12.51,9.37,18.22,3.47,5.59,9.05,11.66,10.74,18.1,1.8,6.86.45,15.4.42,22.44-.11,30.78-.22,61.56-.34,92.34-24.35.22-48.68,1.24-72.96,3.06,1.29-17.14,2.59-34.29,3.88-51.43,1.29-17.12,1.97-34.42,4.18-51.44Z"/>
  <path class="cls-2" d="m284.67,114.71c-.86-6.33-4.55-11.28-7.93-16.51-3.82-5.91-8.03-11.9-11.08-18.25-2.83-5.88-1.84-12.07-1.49-18.29,2.81-.47,5.4-1.83,7.62-4.04,3.02-3.01.83-8.63-3.54-8.54-17.08.37-34.07,1.74-51,3.98-.01,0-.02,0-.04,0,0,0,0,0,0,0-.44.06-.89.11-1.33.17-5.86.79-3.96,9.49,1.33,9.82,5.31.33,1.83,17.13.58,19.86-2.86,6.22-7.82,11.23-10.68,17.54-5.6,12.35-7.34,25.89-8.46,39.28-2.7,31.99-4.85,64.03-7.26,96.04-.19,2.57,1.29,4.1,3.17,4.61.73,1.36,2.13,2.31,4.21,2.15,26.89-2.08,53.85-3.19,80.82-3.31,2.71-.01,4.99-2.28,5-5,.12-32.43.24-64.86.36-97.29.03-7.31.71-14.96-.27-22.22Zm-74.97,14.74c.97-7.5,2.51-15.03,5.28-22.09,2.89-7.36,8.4-12.9,11.74-19.92,3.07-6.45,4.78-17.86,1.78-25.76,8.57-.94,17.16-1.63,25.76-2.07-.11,6.21-1.31,12.4.16,18.57,1.58,6.64,5.82,12.51,9.37,18.22,3.47,5.59,9.05,11.66,10.74,18.1,1.8,6.86.45,15.4.42,22.44-.11,30.78-.22,61.56-.34,92.34-24.35.22-48.68,1.24-72.96,3.06,1.29-17.14,2.59-34.29,3.88-51.43,1.29-17.12,1.97-34.42,4.18-51.44Z"/>
</svg>