<?xml version="1.0" encoding="UTF-8"?>
<svg id="Calque_2" data-name="Calque 2" xmlns="http://www.w3.org/2000/svg" viewBox="0 0 30.69 30.68">
  <defs>
    <style>
      .cls-1 {
        fill: #fff;
      }
    </style>
  </defs>
  <g id="Calque_1-2" data-name="Calque 1">
    <path class="cls-1" d="m30.58,21.66c-.12,2.46-.68,4.63-2.48,6.43-1.79,1.8-3.97,2.36-6.43,2.48-2.53.14-10.12.14-12.66,0-2.46-.12-4.63-.68-6.43-2.48C.79,26.3.22,24.12.11,21.66-.04,19.13-.04,11.54.11,9.01c.12-2.46.68-4.63,2.48-6.43C4.39.79,6.56.22,9.01.11,11.55-.04,19.14-.04,21.67.11c2.46.12,4.63.68,6.43,2.48,1.8,1.79,2.36,3.97,2.48,6.43.14,2.53.14,10.12,0,12.65Zm-2.66-6.32c0-2.23.19-7.02-.62-9.04-.54-1.35-1.57-2.38-2.92-2.92-2.01-.79-6.81-.62-9.04-.62s-7.02-.19-9.04.62c-1.35.54-2.38,1.57-2.92,2.92-.79,2.01-.62,6.81-.62,9.04s-.18,7.02.62,9.04c.54,1.35,1.57,2.38,2.92,2.92,2.01.79,6.81.62,9.04.62s7.02.18,9.04-.62c1.35-.54,2.38-1.57,2.92-2.92.8-2.01.62-6.81.62-9.04Zm-4.71,0c0,4.35-3.51,7.87-7.87,7.87s-7.87-3.51-7.87-7.87,3.51-7.87,7.87-7.87,7.87,3.51,7.87,7.87Zm-2.75,0c0-2.82-2.29-5.11-5.11-5.11s-5.11,2.29-5.11,5.11,2.3,5.11,5.11,5.11,5.11-2.29,5.11-5.11Zm3.07-10.02c-1.01,0-1.84.82-1.84,1.83s.81,1.84,1.84,1.84,1.83-.81,1.83-1.84-.82-1.83-1.83-1.83Z"/>
  </g>
</svg>