<?xml version="1.0" encoding="UTF-8"?>
<svg width="62px" height="62px" viewBox="0 0 62 62" version="1.1" xmlns="http://www.w3.org/2000/svg" xmlns:xlink="http://www.w3.org/1999/xlink">
    <title>Group</title>
    <g id="Page-1" stroke="none" stroke-width="1" fill="none" fill-rule="evenodd">
        <g id="Page-d'acceuil-mbile" transform="translate(-72.000000, -4855.000000)" fill="#000000" fill-rule="nonzero">
            <g id="Group" transform="translate(72.000000, 4855.000000)">
                <path d="M31.0641813,0.000221670626 C48.2005827,0.000221670626 62.0637389,13.9423138 61.9997796,31.1608431 C61.9353763,48.1866276 48.0080389,62 30.9358187,62 C13.7994173,61.9357518 -0.0637388978,47.9938829 0.000220425764,30.8396018 C0.000220425764,13.749569 13.9919611,-0.0638033572 31.0641813,0.000221670626 Z M12.2590666,39.1918735 C15.339768,39.1918735 18.3562881,39.32037 21.3086269,39.1276253 C23.2340653,38.9991288 24.5818721,37.3286744 24.9027785,35.2727306 C25.1595036,33.4095316 24.325147,31.931822 22.5922525,31.0323466 C24.1326032,29.6188852 24.6460534,27.9484309 24.1326032,26.2779765 C23.5549717,24.6075222 22.2713461,23.5153021 20.5384516,23.3868056 C17.7786566,23.1940608 15.0830429,23.3225573 12.2590666,23.3225573 C12.2590666,28.6551616 12.2590666,33.9235175 12.2590666,39.1918735 Z M36.070321,31.2893395 C36.070321,36.3007025 39.279385,39.6416112 44.1571621,39.6416112 C49.0349393,39.6416112 52.3081845,36.3007025 52.2440033,31.2893395 C52.2440033,26.2779765 48.970758,23.0013161 44.0929809,23.0013161 C39.279385,23.0655644 36.070321,26.3422248 36.070321,31.2893395 Z M28.8178365,39.32037 C29.6521931,39.32037 30.3581872,39.2561218 31.0641813,39.32037 C31.8985379,39.3846182 32.155263,39.1276253 32.155263,38.2281499 C32.0910817,33.6022763 32.155263,28.9121545 32.155263,24.286281 C32.155263,23.9650398 32.0910817,23.6437985 32.0910817,23.3225573 C30.9358187,23.3225573 29.844737,23.3225573 28.8178365,23.3225573 C28.8178365,28.7194098 28.8178365,33.9235175 28.8178365,39.32037 Z" id="Shape"></path>
                <path d="M16,35.9381313 C16,34.5770202 16,33.3396465 16,32.040404 C17.4193548,32.040404 18.9032258,31.9166667 20.3225806,32.1022727 C21.4193548,32.2260101 22,33.0921717 22,34.0820707 C21.9354839,35.0719697 21.2258065,35.9381313 20.1290323,36 C18.7741935,36 17.4193548,35.9381313 16,35.9381313 Z" id="Path"></path>
                <path d="M16,29.983524 C16,28.6654462 16,27.4132723 16,26.0292906 C17.218269,26.0292906 18.4365379,25.9633867 19.6548069,26.0292906 C20.5685087,26.0951945 21.0558162,27.017849 20.9949028,28.0723112 C20.9339893,29.1267735 20.3248549,29.8517162 19.3502397,29.9176201 C18.2537976,30.0494279 17.1573555,29.983524 16,29.983524 Z" id="Path"></path>
                <path d="M40,31.0176059 C40,27.4528817 42.4607385,25.3522406 45.7417232,26.1797659 C48.0131741,26.752668 49.401283,29.3625554 48.8965161,32.0360986 C48.3917493,34.7732975 46.5619693,36.1737249 43.8488474,35.9827575 C41.5143006,35.7917902 40,33.8184607 40,31.0176059 Z" id="Path"></path>
            </g>
        </g>
    </g>
</svg>