<?xml version="1.0" encoding="UTF-8"?>
<svg width="62px" height="62px" viewBox="0 0 62 62" version="1.1" xmlns="http://www.w3.org/2000/svg" xmlns:xlink="http://www.w3.org/1999/xlink">
    <title>Shape</title>
    <g id="Page-1" stroke="none" stroke-width="1" fill="none" fill-rule="evenodd">
        <g id="Page-d'acceuil-mbile" transform="translate(-284.000000, -4967.000000)" fill="#000000" fill-rule="nonzero">
            <path d="M346,4998.03212 C346,5015.12216 332.086867,5029.06403 314.967942,5029 C297.849018,5029 284,5015.12216 284,4997.96788 C284,4980.87784 297.913133,4966.93597 315.032058,4967 C332.150982,4967 346,4980.94209 346,4998.03212 Z M315.15505,4992.89996 C314.575374,4992.25503 314.253332,4991.93256 313.93129,4991.61009 C311.354953,4988.96586 307.232815,4989.67529 305.558196,4993.02895 C304.527661,4995.09273 305.042928,4996.96304 306.137872,4998.83335 C307.876899,5001.73555 310.195602,5004.05732 312.771939,5006.1856 C314.124515,5007.28199 316.056768,5007.28199 317.344936,5006.1211 C318.890738,5004.76674 320.372132,5003.2834 321.789117,5001.80005 C323.141694,5000.3167 324.236637,4998.70436 324.816313,4996.76956 C325.460397,4994.4478 324.365454,4991.86807 322.239976,4990.64269 C320.178907,4989.48181 317.731387,4989.93326 316.056768,4991.80357 C315.734726,4992.06155 315.477092,4992.44851 315.15505,4992.89996 Z M325.196964,5020.23858 C325.196964,5020.91548 325.60682,5021.16163 326.153294,5020.85395 C327.109624,5020.36165 327.929335,5020.23858 328.885664,5020.85395 C329.568757,5021.22317 330.046921,5020.85395 329.841994,5020.17704 C329.568757,5019.25399 329.841994,5018.63862 330.593396,5018.02325 C331.276488,5017.46942 331.07156,5016.97712 330.18354,5016.91559 C329.090592,5016.85405 328.544118,5016.42329 328.134262,5015.56177 C327.792716,5014.82333 327.246242,5014.82333 326.904696,5015.50024 C326.49484,5016.36175 325.880057,5016.85405 324.787109,5016.91559 C323.899089,5016.97712 323.76247,5017.46942 324.377253,5017.96171 C325.265274,5018.63862 325.60682,5019.31552 325.196964,5020.23858 Z M326.00892,4978.11943 C325.949641,4978.9273 326.305316,4979.23803 326.898108,4978.80302 C327.668737,4978.30586 328.320808,4978.24372 329.091438,4978.80302 C329.269276,4978.9273 329.624951,4978.9273 329.862068,4978.86516 C329.980626,4978.80302 330.099184,4978.368 330.039905,4978.18157 C329.802788,4977.31155 329.980626,4976.56582 330.691976,4976.00652 C330.869814,4975.88223 331.047651,4975.50936 330.988372,4975.32293 C330.869814,4975.07435 330.573418,4974.88792 330.336301,4974.88792 C329.387834,4974.88792 328.9136,4974.39076 328.557925,4973.52074 C328.261529,4972.83715 327.728016,4972.83715 327.4909,4973.45859 C327.135224,4974.39076 326.601712,4974.82577 325.653245,4974.82577 C324.941894,4974.88792 324.764057,4975.38507 325.356849,4975.88223 C326.068199,4976.56582 326.364595,4977.2494 326.00892,4978.11943 Z M292.971401,4987.11431 C292.912403,4987.97696 293.325391,4988.22344 293.915374,4987.79211 C294.682351,4987.29916 295.331332,4987.29916 296.098309,4987.79211 C296.74729,4988.16182 297.10128,4987.91535 296.983283,4987.17593 C296.806288,4986.25166 296.924285,4985.57386 297.691262,4984.89605 C298.222246,4984.46473 298.045252,4983.84855 297.337273,4983.84855 C296.452299,4983.78693 295.921314,4983.41722 295.567325,4982.55456 C295.272333,4981.81515 294.741349,4981.81515 294.446358,4982.55456 C294.092368,4983.41722 293.620382,4983.84855 292.67641,4983.91016 C291.968431,4983.91016 291.791436,4984.46473 292.263422,4984.95767 C293.0304,4985.57386 293.443387,4986.25166 292.971401,4987.11431 Z M301.217402,4978.16148 C301.217402,4978.95555 301.628994,4979.19989 302.246381,4978.83339 C303.138163,4978.28365 303.961347,4978.34473 304.853129,4978.83339 C305.539116,4979.19989 306.019306,4978.95555 305.81351,4978.16148 C305.607714,4977.24524 305.81351,4976.57333 306.636694,4975.90142 C307.254081,4975.47385 307.048286,4974.9241 306.293701,4974.86302 C305.127524,4974.80194 304.510136,4974.37436 304.098544,4973.45812 C303.82415,4972.84729 303.206762,4972.84729 302.932368,4973.45812 C302.520776,4974.43544 301.834789,4974.80194 300.668613,4974.86302 C300.051225,4974.86302 299.708232,4975.35168 300.32562,4975.84034 C301.217402,4976.57333 301.766191,4977.30632 301.217402,4978.16148 Z M334.047324,4987.14182 C333.987794,4987.95451 334.344974,4988.20457 334.940275,4987.82948 C335.714167,4987.32937 336.368998,4987.26685 337.14289,4987.82948 C337.32148,4987.95451 337.738191,4988.01703 337.797721,4987.892 C337.976311,4987.70445 338.095371,4987.32937 338.035841,4987.14182 C337.797721,4986.2041 337.976311,4985.51644 338.690672,4984.95381 C338.869263,4984.82878 339.047853,4984.4537 338.988323,4984.32867 C338.869263,4984.07861 338.571612,4983.89107 338.333492,4983.89107 C337.38101,4983.89107 336.904769,4983.39095 336.547588,4982.51575 C336.249938,4981.82808 335.714167,4981.82808 335.476046,4982.51575 C335.118866,4983.45346 334.583095,4983.89107 333.630613,4983.89107 C332.916252,4983.95358 332.797191,4984.51621 333.332962,4984.95381 C334.166384,4985.51644 334.404504,4986.26662 334.047324,4987.14182 Z M301.098311,5020.16071 C301.098311,5020.96638 301.57857,5021.15231 302.196047,5020.84243 C303.087957,5020.28466 303.911259,5020.34663 304.80317,5020.84243 C305.489255,5021.21428 305.900906,5020.90441 305.763689,5020.16071 C305.557863,5019.23108 305.763689,5018.61133 306.586991,5017.99158 C307.273076,5017.49578 307.06725,5016.93801 306.243948,5016.93801 C305.077604,5016.87603 304.460127,5016.38023 304.048476,5015.45061 C303.774042,5014.89283 303.156566,5014.83086 302.95074,5015.38863 C302.539089,5016.38023 301.853004,5016.87603 300.68666,5016.93801 C300.069183,5016.99998 299.726141,5017.43381 300.275009,5017.92961 C301.029702,5018.54936 301.715787,5019.23108 301.098311,5020.16071 Z M334.224705,5011.036 C334.156156,5011.95857 334.498903,5012.20459 335.184398,5011.83556 C336.144091,5011.34352 336.898135,5011.28202 337.789279,5011.83556 C338.474774,5012.20459 339.02317,5011.83556 338.817521,5011.15901 C338.543323,5010.23643 338.748972,5009.62138 339.571566,5009.00633 C340.257061,5008.45279 340.119962,5007.96075 339.160269,5007.89924 C338.063477,5007.83774 337.446531,5007.3457 337.035234,5006.48463 C336.761036,5005.86958 336.144091,5005.80807 335.869893,5006.48463 C335.458596,5007.4072 334.841651,5007.89924 333.676309,5007.89924 C332.922265,5007.96075 332.785166,5008.45279 333.333562,5008.88332 C334.224705,5009.55988 334.636002,5010.23643 334.224705,5011.036 Z M314.011768,4975.95031 C313.952853,4977.00225 314.24743,4977.24976 315.01333,4976.75473 C315.720315,4976.32158 316.309469,4976.32158 317.016453,4976.75473 C317.723438,4977.24976 318.194761,4976.94037 318.018015,4976.07406 C317.782353,4975.14588 318.018015,4974.52709 318.666084,4973.9083 C319.255238,4973.3514 319.019577,4972.85636 318.312592,4972.79449 C317.428861,4972.73261 316.898623,4972.36133 316.604046,4971.55691 C316.54513,4971.30939 316.250553,4971.06188 316.014892,4971 C315.838146,4971 315.484653,4971.30939 315.425738,4971.49503 C315.131161,4972.36133 314.659838,4972.73261 313.717192,4972.79449 C312.951291,4972.79449 312.774545,4973.3514 313.304784,4973.9083 C313.952853,4974.58897 314.365261,4975.20776 314.011768,4975.95031 Z M336.959045,4999.03719 C336.899965,4999.95862 337.195365,5000.20434 337.845244,4999.83576 C338.613284,4999.40576 339.263163,4999.22147 340.031202,4999.83576 C340.208442,4999.95862 340.622002,5000.02005 340.799242,4999.89719 C340.976482,4999.77433 341.035562,4999.34433 340.976482,4999.09861 C340.681082,4998.23861 340.976482,4997.62432 341.626361,4997.01003 C342.217161,4996.45716 342.099001,4996.02716 341.330961,4995.9043 C340.444762,4995.78144 339.913043,4995.4743 339.558563,4994.55286 C339.263163,4993.81571 338.731443,4993.81571 338.436044,4994.55286 C338.081564,4995.4743 337.549844,4995.78144 336.663645,4995.9043 C335.954686,4996.02716 335.777446,4996.45716 336.309165,4996.9486 C336.959045,4997.56289 337.313525,4998.23861 336.959045,4999.03719 Z M290.018125,4998.99071 C289.959045,4999.9645 290.254445,5000.20795 290.963404,4999.78192 C291.731443,4999.29502 292.322243,4999.29502 293.031202,4999.78192 C293.740162,5000.26882 294.153722,4999.90364 293.976482,4999.05157 C293.740162,4998.13864 293.976482,4997.59088 294.626361,4996.98225 C295.217161,4996.43449 295.099001,4995.94759 294.330961,4995.88673 C293.444762,4995.76501 292.913043,4995.4607 292.558563,4994.54776 C292.263163,4993.81741 291.731443,4993.81741 291.436044,4994.54776 C291.081564,4995.39983 290.549844,4995.76501 289.663645,4995.88673 C288.954686,4995.94759 288.777446,4996.43449 289.309165,4996.92139 C289.959045,4997.59088 290.431684,4998.1995 290.018125,4998.99071 Z M292.033725,5011.04973 C292.033725,5011.91315 292.328741,5012.15984 292.977776,5011.7898 C293.685815,5011.35809 294.33485,5011.29642 295.042888,5011.7898 C295.750926,5012.22151 296.163948,5011.97482 295.986939,5011.17307 C295.809929,5010.24798 295.986939,5009.56958 296.694977,5008.95286 C297.167002,5008.52115 297.107999,5007.96609 296.399961,5007.90442 C295.45591,5007.84275 294.865878,5007.41104 294.511859,5006.48595 C294.275846,5005.86922 293.744818,5005.80755 293.508805,5006.48595 C293.154786,5007.41104 292.623757,5007.90442 291.620703,5007.90442 C290.971668,5007.96609 290.794659,5008.45947 291.266684,5008.89118 C292.033725,5009.56958 292.446748,5010.24798 292.033725,5011.04973 Z M314.018125,5024.02041 C313.959045,5025 314.254445,5025.2449 314.963404,5024.7551 C315.672364,5024.26531 316.322243,5024.20408 317.031202,5024.7551 C317.208442,5024.87755 317.622002,5024.93878 317.799242,5024.81633 C317.976482,5024.69388 318.035562,5024.26531 317.976482,5024.02041 C317.681082,5023.16327 317.976482,5022.55102 318.626361,5021.93878 C319.217161,5021.38776 319.099001,5020.89796 318.330961,5020.83673 C317.503842,5020.71429 316.913043,5020.40816 316.558563,5019.55102 C316.263163,5018.81633 315.731443,5018.81633 315.436044,5019.55102 C315.081564,5020.46939 314.549844,5020.77551 313.663645,5020.89796 C312.954686,5020.95918 312.777446,5021.44898 313.309165,5021.93878 C314.018125,5022.61224 314.431684,5023.22449 314.018125,5024.02041 Z" id="Shape"></path>
        </g>
    </g>
</svg>