<?xml version="1.0" encoding="UTF-8"?>
<svg id="Calque_2" data-name="Calque 2" xmlns="http://www.w3.org/2000/svg" viewBox="0 0 60.13 37.7">
  <defs>
    <style>
      .cls-1 {
        fill: #fff;
      }
    </style>
  </defs>
  <g id="Calque_1-2" data-name="Calque 1">
    <path class="cls-1" d="m30.98,26.26c0,7.52-6.32,10.74-13.04,10.74H0V0h17.45c6.34,0,11.83,1.8,11.83,9.17,0,3.74-1.73,6.14-5.05,7.73,4.55,1.28,6.76,4.72,6.76,9.37ZM8.13,14.95h8.25c2.9,0,4.96-1.27,4.96-4.41,0-3.41-2.64-4.23-5.57-4.23h-7.63v8.63Zm14.71,10.86c0-3.79-2.26-5.29-5.85-5.29h-8.86v10.19h8.7c3.31,0,6.01-1.17,6.01-4.91Zm37.23-.44h-19.32c0,4.29,2.27,6.82,6.58,6.82,2.24,0,5.12-1.21,5.82-3.5h6.49c-1.99,6.13-6.14,9.01-12.54,9.01-8.46,0-13.71-5.72-13.71-14.06s5.54-14.18,13.71-14.18,13.04,6.61,13.04,14.53c0,.47-.03.94-.06,1.38ZM54.26,1.94h-15v3.65h15V1.94Zm-1.52,18.79c-.31-3.55-2.17-5.72-5.87-5.72s-5.87,2.2-6.11,5.72h11.98Z"/>
  </g>
</svg>