<?xml version="1.0" encoding="UTF-8"?>
<svg width="62px" height="62px" viewBox="0 0 62 62" version="1.1" xmlns="http://www.w3.org/2000/svg" xmlns:xlink="http://www.w3.org/1999/xlink">
    <title>Shape</title>
    <g id="Page-1" stroke="none" stroke-width="1" fill="none" fill-rule="evenodd">
        <g id="Page-d'acceuil-mbile" transform="translate(-72.000000, -4969.000000)" fill="#000000" fill-rule="nonzero">
            <path d="M103.032058,5031 C85.9131334,5031 72,5017.12228 72,5000.03212 C72,4982.87772 85.8490176,4969 102.967942,4969 C120.086867,4969 134,4982.87772 134,4999.96788 C134,5017.05803 120.150982,5031 103.032058,5031 Z M120,4980.09925 C109.527301,4971.16135 92.7965256,4971.86361 83.0901216,4983.41904 C73.894581,4994.39989 76.0657503,5009.33894 83.2816954,5017 C86.6023073,5013.68021 89.9867771,5010.29658 93.307389,5006.97679 C93.5628207,5006.72142 93.6905365,5006.33836 93.8182523,5006.01915 C95.2231266,5001.93326 96.6280009,4997.78352 98.0967331,4993.69762 C98.7991702,4991.78236 98.4798806,4989.80325 98.5437385,4987.82415 C98.5437385,4987.63262 98.2883068,4987.37725 98.0967331,4987.18573 C97.2665801,4986.35578 97.0750063,4985.39815 97.3942959,4984.37667 C97.7774435,4983.29136 98.6075964,4982.58909 99.757039,4982.52525 C101.992066,4982.46141 104.290951,4982.46141 106.525979,4982.52525 C107.611563,4982.58909 108.441716,4983.22751 108.824864,4984.31283 C109.208011,4985.39815 108.95258,4986.29194 108.186285,4987.18573 C108.058569,4987.37725 107.739279,4987.56878 107.739279,4987.7603 C107.675421,4989.29252 107.739279,4990.88857 107.739279,4992.48462 C111.890044,4988.14336 115.976951,4984.1213 120,4980.09925 Z M86,5019.86563 C94.7564444,5027.72433 110.671442,5028.87439 121.28144,5018.33222 C131.891439,5007.79006 130.740957,4991.81708 122.815416,4983 C122.687585,4983.12778 122.559753,4983.19168 122.431922,4983.31946 C118.085658,4987.66411 113.739393,4992.00876 109.393129,4996.28952 C108.881804,4996.73676 109.009635,4997.12011 109.201382,4997.63125 C110.863189,5002.42314 112.524996,5007.27892 114.122887,5012.07082 C115.145538,5015.13763 113.675478,5017.11828 110.479695,5017.18217 C105.494274,5017.18217 100.508853,5017.18217 95.5234323,5017.18217 C93.542047,5017.18217 91.7524088,5017.05438 90.8575896,5015.00984 C89.1957826,5016.67103 87.5978913,5018.26833 86,5019.86563 Z M103.094357,5015.93601 C105.742925,5015.93601 108.454554,5015.93601 111.103121,5015.93601 C112.616588,5015.93601 113.310261,5015.04015 112.868833,5013.56838 C111.355366,5008.9611 109.715776,5004.28984 108.202309,4999.68256 C107.950065,4998.91468 107.445575,4998.91468 106.941086,4999.10665 C106.121292,4999.4266 105.301497,4999.81054 104.544763,5000.25847 C103.22048,5001.09034 101.959257,5002.17817 100.571912,5002.88206 C99.5629339,5003.45797 98.3647724,5003.77792 97.229672,5003.96989 C96.5990607,5004.09787 96.3468162,5004.22585 96.0945717,5004.86575 C95.1486547,5007.74529 94.2027377,5010.56085 93.1937596,5013.4404 C92.6262094,5015.10414 93.3198818,5016 95.0855935,5016 C97.7972222,5015.93601 100.44579,5015.93601 103.094357,5015.93601 Z M108,4996.8435 C106.2,4993.72414 106.133333,4990.41379 106.333333,4987.10345 C106.333333,4986.65782 106.733333,4986.27586 107,4985.83024 C107.2,4985.44828 107.6,4985.06631 107.533333,4984.74801 C107.466667,4984.42971 106.866667,4984.04775 106.533333,4984.04775 C104.4,4983.98408 102.333333,4983.98408 100.2,4984.04775 C99.8666667,4984.04775 99.3333333,4984.49337 99.2666667,4984.81167 C99.2,4985.06631 99.5333333,4985.51194 99.7333333,4985.83024 C99.9333333,4986.14854 100.4,4986.40318 100.4,4986.65782 C100.4,4989.01326 100.8,4991.3687 100,4993.66048 C99.0666667,4996.33422 98.0666667,4999.07162 97,5002 C97.8666667,5001.74536 98.4666667,5001.6817 99,5001.42706 C100.133333,5000.79045 101.266667,5000.15385 102.333333,4999.38992 C104.066667,4998.30769 105.666667,4997.1618 108,4996.8435 Z" id="Shape"></path>
        </g>
    </g>
</svg>