<?xml version="1.0" encoding="UTF-8"?>
<svg width="62px" height="62px" viewBox="0 0 62 62" version="1.1" xmlns="http://www.w3.org/2000/svg" xmlns:xlink="http://www.w3.org/1999/xlink">
    <title>Shape</title>
    <g id="Page-1" stroke="none" stroke-width="1" fill="none" fill-rule="evenodd">
        <g id="Page-d'acceuil-mbile" transform="translate(-286.000000, -4855.000000)" fill="#000000" fill-rule="nonzero">
            <path d="M286,4885.9358 C286,4868.82797 299.977421,4854.93591 317.096284,4855 C334.215148,4855 348,4868.9566 348,4886.06443 C348,4903.17225 334.086916,4917 316.968053,4917 C299.785074,4917 285.936106,4903.04362 286,4885.9358 Z M337,4869.3172 C336.552,4869.50751 336.36,4869.57095 336.168,4869.69783 C331.624,4872.61603 327.464,4875.9783 323.816,4879.97496 C320.936,4883.21035 318.44,4886.6995 317.352,4890.94992 C317.224,4891.33055 317.16,4891.71119 316.968,4892.28214 C315.56,4887.96828 313.832,4884.16194 311.464,4880.54591 C308.648,4876.29549 305.256,4872.55259 300.52,4870.33222 C299.432,4869.82471 298.344,4869.50751 297,4869 C297.128,4869.38063 297.192,4869.50751 297.192,4869.63439 C302.504,4881.87813 307.816,4894.12187 313.128,4906.36561 C313.256,4906.61937 313.768,4906.93656 314.152,4906.93656 C316.008,4907 317.864,4906.93656 319.72,4907 C320.488,4907 320.872,4906.74624 321.128,4906.04841 C325.992,4894.75626 330.92,4883.40067 335.784,4872.10851 C336.168,4871.28381 336.552,4870.39566 337,4869.3172 Z" id="Shape"></path>
        </g>
    </g>
</svg>