<?xml version="1.0" encoding="UTF-8"?>
<svg width="62px" height="62px" viewBox="0 0 62 62" version="1.1" xmlns="http://www.w3.org/2000/svg" xmlns:xlink="http://www.w3.org/1999/xlink">
    <title>Shape</title>
    <g id="Page-1" stroke="none" stroke-width="1" fill="none" fill-rule="evenodd">
        <g id="Page-d'acceuil-mbile" transform="translate(-178.000000, -4855.000000)" fill="#000000" fill-rule="nonzero">
            <path d="M209.064182,4855 C226.200705,4855 240.06396,4868.95655 240,4886.06431 C240,4903.17208 226.072342,4917.06409 208.935818,4917 C191.799295,4917 177.93604,4903.04345 178,4885.93569 C178,4868.82792 191.927658,4854.93591 209.064182,4855 Z M208.500726,4904.30603 C209.833297,4902.03487 210.658222,4899.82679 210.912046,4897.42945 C211.356236,4893.39182 210.08712,4889.79581 207.802712,4886.57833 C203.868454,4880.9635 198.411257,4877.05205 192.763693,4873.26677 C191.938768,4872.69898 191.177298,4873.07751 190.860019,4874.02383 C190.415829,4875.28559 190.035094,4876.61043 189.717815,4877.87219 C188.385244,4883.0454 187.433407,4888.21861 188.385244,4893.58109 C189.400536,4899.00665 192.382958,4902.72883 197.840155,4904.11677 C200.188019,4904.74765 202.72625,4904.74765 205.201025,4905 C205.454849,4905 205.708672,4904.93691 206.025951,4904.93691 C198.601624,4897.24019 194.223176,4888.21861 193.207883,4877.61984 C196.824863,4887.33538 201.266767,4896.48313 208.500726,4904.30603 Z M213.48585,4900 C216.949326,4899.93574 219.963833,4899.29317 222.657647,4897.3012 C225.543877,4895.11647 227.147338,4892.16064 228.30183,4888.88353 C230.290122,4883.03614 230.674953,4876.93172 230.995645,4870.76305 C231.059783,4869.22088 230.418399,4868.70682 228.879076,4869.15662 C226.698369,4869.73494 224.581801,4870.31325 222.401094,4870.95582 C216.243803,4872.75502 211.241005,4876.03213 208.226498,4881.87952 C207.905806,4882.52209 207.905806,4882.84337 208.354775,4883.42168 C210.856174,4886.37751 212.587912,4889.65462 212.908604,4893.63855 C214.31965,4889.5261 215.98725,4885.60642 218.360372,4882.00803 C220.733494,4878.34538 223.619724,4875.19678 227.724584,4872.88353 C220.412802,4880.72289 216.500357,4889.9759 213.48585,4900 Z" id="Shape"></path>
        </g>
    </g>
</svg>