<?xml version="1.0" encoding="UTF-8"?>
<svg width="62px" height="58px" viewBox="0 0 62 58" version="1.1" xmlns="http://www.w3.org/2000/svg" xmlns:xlink="http://www.w3.org/1999/xlink">
    <title>Group</title>
    <g id="Page-1" stroke="none" stroke-width="1" fill="none" fill-rule="evenodd">
        <g id="Page-d'acceuil-mbile" transform="translate(-226.000000, -5111.000000)" fill="#000000" fill-rule="nonzero">
            <g id="Group" transform="translate(226.000000, 5111.000000)">
                <path d="M49.6626786,57 C49.6626786,56.4717999 49.6626786,56.0756498 49.6626786,55.6794998 C49.6626786,48.2186734 49.6626786,40.823872 49.6626786,33.3630456 C49.6626786,28.2791197 46.4509057,24.9778691 41.5690108,24.9778691 C34.6315814,24.9778691 27.6299164,25.1099191 20.692487,24.911844 C16.1960049,24.845819 12.3418774,28.4111697 12.4061129,33.4950956 C12.4703483,40.955922 12.4061129,48.3507234 12.4061129,55.8115498 C12.4061129,56.2076999 12.4061129,56.6038499 12.4061129,57 C4.18397424,51.387874 -1.85415882,38.9751717 0.522553133,26.1663193 C3.22044237,11.3106915 15.3609439,0.482589501 29.7496866,0.020414415 C44.3311355,-0.507785683 57.2424626,9.26391613 60.9681192,23.5253188 C64.5010694,37.3245463 58.5271718,50.5955738 49.6626786,57 Z M30.9701603,23.7894188 C35.5308778,23.7894188 40.1558308,23.7894188 44.7165483,23.7894188 C46.7078475,23.7894188 46.7078475,23.7894188 46.7078475,21.8086685 C46.7078475,20.0259931 46.7078475,18.1772928 46.7078475,16.3946175 C46.7078475,14.6119421 45.8727865,13.753617 44.2026646,13.753617 C35.4024069,13.753617 26.5379137,13.753617 17.7376559,13.753617 C16.1317694,13.753617 15.232473,14.6779671 15.232473,16.3285924 C15.232473,18.2433178 15.232473,20.2240682 15.232473,22.1387935 C15.232473,23.5253188 15.4894149,23.7894188 16.774124,23.7894188 C21.5275479,23.7894188 26.2167364,23.7894188 30.9701603,23.7894188 Z" id="Shape"></path>
                <path d="M25.9688581,34.9701493 C23.2906574,34.9701493 20.6124567,34.9701493 17.9342561,34.9701493 C17.6228374,34.9701493 17.3114187,34.7014925 17,34.5 C17.3114187,34.2985075 17.6228374,34.0298507 17.9342561,34.0298507 C23.2906574,34.0298507 28.5847751,34.0298507 33.9411765,34.0298507 C34.0657439,34.0298507 34.1903114,33.9626866 34.2525952,34.0298507 C34.5017301,34.2313433 34.7508651,34.3656716 35,34.5671642 C34.7508651,34.7014925 34.5640138,34.9701493 34.3148789,34.9701493 C33.2560554,35.0373134 32.1972318,34.9701493 31.1384083,34.9701493 C29.3944637,34.9701493 27.7128028,34.9701493 25.9688581,34.9701493 Z" id="Path"></path>
                <path d="M25.3861249,49.516129 C25.7397858,49.3870968 26.3292208,49.1935484 27.0365428,49 C27.2133733,49.7096774 27.3312603,50.3548387 27.4491473,50.8064516 C27.0365428,51.1935484 26.6828818,51.4516129 26.4471078,51.8387097 C26.1523903,52.2903226 25.9166163,52.7419355 25.6808423,53.2580645 C25.1503509,54.3548387 25.6808423,55.3870968 26.8007688,55.4516129 C27.2133733,55.516129 27.6849213,55.3870968 28.0975258,55.516129 C28.4511868,55.6451613 28.9227348,55.9032258 28.9816783,56.2258065 C29.0995653,56.8709677 28.6280173,57 28.1564693,57 C27.6259778,57 27.1544298,57 26.6239383,57 C24.6198594,56.8709677 23.4409894,54.7419355 24.2661984,52.8064516 C24.5609159,52.1612903 24.9145769,51.5806452 25.2092944,50.9354839 C25.3271814,50.5483871 25.2682379,50.1612903 25.3861249,49.516129 Z" id="Path"></path>
                <path d="M35,48.1819351 C34.9354561,48.5859495 34.8063684,49.1919711 34.6127368,50 C33.9027541,49.7979928 33.2573154,49.5959856 32.8055083,49.4613141 C32.6764205,48.8552924 32.6764205,48.3839423 32.4827889,47.9799278 C32.2246134,47.4412419 31.9664379,46.902556 31.5791746,46.3638701 C30.869192,45.353834 29.7719461,45.353834 29.1265074,46.3638701 C28.8683319,46.7678846 28.7392441,47.3065705 28.3519809,47.6432492 C28.0938054,47.9125921 27.6419983,47.9799278 27.254735,48.1145993 C27.1901911,47.7105849 26.8674718,47.2392347 27.0611034,46.902556 C27.7065421,45.5558413 28.3519809,44.1417908 30.0946655,44.0071193 C31.3209991,43.9397835 32.3537011,44.343798 32.9991399,45.4885055 C33.3218593,46.0271914 33.5800348,46.6332131 33.967298,47.171899 C34.1609296,47.4412419 34.5481929,47.7105849 35,48.1819351 Z" id="Path"></path>
                <path d="M32.3271192,58 C32.0255012,57.7343299 31.5429124,57.2029898 31,56.6716496 C31.5429124,56.1403094 31.9651776,55.6753868 32.3271192,55.3432992 C32.7493845,55.5425517 33.1113261,55.8082218 33.4732677,55.8746393 C34.0161801,55.9410569 34.6194161,55.9410569 35.2226521,55.8746393 C36.3688006,55.7418043 36.8513894,54.679124 36.308477,53.5500261 C36.0671826,53.0186859 35.7655645,52.5537633 35.5845937,52.0224231 C35.5242701,51.7567531 35.6449173,51.2918304 35.8258881,51.0925778 C36.006859,50.9597428 36.5497714,50.9597428 36.6704186,51.1589954 C37.3943018,52.2880932 38.2388322,53.4171911 37.9372142,55.0112116 C37.6355962,56.4059795 36.6704186,57.3358248 35.3432993,57.4022423 C34.7400633,57.4022423 34.1368273,57.3358248 33.5335913,57.4686598 C33.1716497,57.4686598 32.8097081,57.7343299 32.3271192,58 Z" id="Path"></path>
                <path d="M40.4,34.9707495 C39.5333333,34.9707495 38.6,34.9707495 37.7333333,34.9707495 C37.4666667,34.9707495 37.2666667,34.7074954 37,34.5100548 C37.2,34.3126143 37.4666667,34.0493601 37.6666667,34.0493601 C39.5333333,33.9835466 41.4666667,33.9835466 43.3333333,34.0493601 C43.5333333,34.0493601 43.7333333,34.3784278 44,34.5758684 C43.7333333,34.7074954 43.5333333,34.9707495 43.2666667,34.9707495 C42.3333333,35.0365631 41.3333333,34.9707495 40.4,34.9707495 Z" id="Path"></path>
                <path d="M26.0634921,18.9677419 C26.0634921,18.2580645 26,17.483871 26.0634921,16.7741935 C26.0634921,16.516129 26.3809524,16.2580645 26.5079365,16 C26.6349206,16.2580645 26.952381,16.4516129 26.952381,16.7096774 C27.015873,18.2580645 27.015873,19.8064516 26.952381,21.3548387 C26.952381,21.5483871 26.6349206,21.8064516 26.4444444,22 C26.3174603,21.7419355 26.0634921,21.5483871 26,21.2903226 C26.0634921,20.5806452 26.0634921,19.7419355 26.0634921,18.9677419 Z" id="Path"></path>
                <path d="M36,18.9677419 C36,19.7419355 36,20.5806452 36,21.3548387 C36,21.5483871 35.7288136,21.7419355 35.5932203,22 C35.3898305,21.8064516 35.0508475,21.6129032 35.0508475,21.4193548 C34.9830508,19.8064516 34.9830508,18.2580645 35.0508475,16.6451613 C35.0508475,16.4516129 35.3898305,16.2580645 35.5932203,16 C35.7288136,16.2580645 36,16.4516129 36,16.7096774 C36,17.483871 36,18.1935484 36,18.9677419 Z" id="Path"></path>
                <path d="M18.9686888,18.9347826 C18.9686888,19.7173913 18.9686888,20.5652174 18.9686888,21.3478261 C18.9686888,21.5434783 18.6868885,21.7391304 18.5459883,22 C18.4050881,21.8043478 18.0528376,21.6086957 18.0528376,21.4782609 C17.9823875,19.8478261 17.9823875,18.2173913 18.0528376,16.5869565 C18.0528376,16.3913043 18.334638,16.1956522 18.5459883,16 C18.6868885,16.1956522 18.9686888,16.3913043 18.9686888,16.5869565 C19.0391389,17.3043478 18.9686888,18.1521739 18.9686888,18.9347826 Z" id="Path"></path>
                <path d="M22.0313112,19.0322581 C22.0313112,18.2580645 22.0313112,17.4193548 22.0313112,16.6451613 C22.0313112,16.4516129 22.3131115,16.2580645 22.4540117,16 C22.5949119,16.1935484 22.9471624,16.3870968 22.9471624,16.5806452 C23.0176125,18.1935484 23.0176125,19.8064516 22.9471624,21.4193548 C22.9471624,21.6129032 22.665362,21.8064516 22.4540117,22 C22.3131115,21.8064516 22.0313112,21.6129032 22.0313112,21.4193548 C21.9608611,20.6451613 22.0313112,19.8709677 22.0313112,19.0322581 Z" id="Path"></path>
                <path d="M43.0313112,18.9347826 C43.0313112,18.1521739 43.0313112,17.3695652 43.0313112,16.6521739 C43.0313112,16.4565217 43.3131115,16.1956522 43.4540117,16 C43.5949119,16.1956522 43.9471624,16.4565217 43.9471624,16.6521739 C44.0176125,18.2173913 44.0176125,19.7826087 43.9471624,21.3478261 C43.9471624,21.6086957 43.665362,21.8043478 43.4540117,22 C43.3131115,21.7391304 43.0313112,21.5434783 43.0313112,21.2826087 C42.9608611,20.5652174 43.0313112,19.7173913 43.0313112,18.9347826 Z" id="Path"></path>
                <path d="M30.9663158,19 C30.9663158,19.8478261 30.9663158,20.6956522 30.9663158,21.4782609 C30.9663158,21.673913 30.7389474,21.8043478 30.5873684,22 C30.4357895,21.8043478 30.0568421,21.673913 30.0568421,21.4782609 C29.9810526,19.8478261 29.9810526,18.2173913 30.0568421,16.5869565 C30.0568421,16.3913043 30.36,16.1956522 30.5115789,16 C30.6631579,16.1956522 30.9663158,16.3913043 30.9663158,16.5869565 C31.0421053,17.3695652 30.9663158,18.2173913 30.9663158,19 C30.9663158,19 30.9663158,19 30.9663158,19 Z" id="Path"></path>
                <path d="M39.0313112,19.0652174 C39.0313112,18.2826087 38.9608611,17.4347826 39.0313112,16.6521739 C39.0313112,16.3913043 39.3835616,16.1956522 39.5244618,16 C39.665362,16.1956522 39.9471624,16.3913043 39.9471624,16.5869565 C40.0176125,18.2173913 40.0176125,19.8478261 39.9471624,21.4782609 C39.9471624,21.673913 39.665362,21.8695652 39.4540117,22 C39.3131115,21.8043478 39.0313112,21.6086957 39.0313112,21.4130435 C38.9608611,20.6304348 39.0313112,19.8478261 39.0313112,19.0652174 Z" id="Path"></path>
            </g>
        </g>
    </g>
</svg>