<?xml version="1.0" encoding="UTF-8"?>
<svg width="62px" height="60px" viewBox="0 0 62 60" version="1.1" xmlns="http://www.w3.org/2000/svg" xmlns:xlink="http://www.w3.org/1999/xlink">
    <title>Group</title>
    <g id="Page-1" stroke="none" stroke-width="1" fill="none" fill-rule="evenodd">
        <g id="Page-d'acceuil-mbile" transform="translate(-129.000000, -5109.000000)" fill="#000000" fill-rule="nonzero">
            <g id="Group" transform="translate(129.000000, 5109.000000)">
                <path d="M16.7109572,31.8197374 C15.8753621,31.379461 15.2325966,31.1278744 14.6541077,30.7504946 C13.9470656,30.3102181 13.5614063,30.3102181 13.1114705,31.1278744 C11.3760037,34.146913 9.57626037,37.0401583 7.84079357,40.0591968 C5.3340082,44.3361681 8.22645286,49.1792092 13.2400236,49.2421058 C15.746809,49.3050024 18.1893178,49.2421058 20.6961032,49.2421058 C22.3672934,49.2421058 23.7813775,50.5000385 23.9742071,52.0724545 C24.1670368,53.8335603 23.2671651,55.2801829 21.6602514,55.783356 C21.3388686,55.9091493 20.8889328,55.9720459 20.5675501,55.9720459 C17.9964882,55.9720459 15.4254262,56.0349426 12.7900878,55.9720459 C3.08432902,55.783356 -3.02194304,45.6569975 1.54169187,37.2917448 C3.27715866,34.146913 5.2054551,31.0020811 7.06947499,27.9201459 C7.58368738,27.1024897 7.51941083,26.6622132 6.61953916,26.2848334 C6.16960332,26.0961435 5.78394404,25.8445569 5.39828475,25.5929704 C5.2054551,25.4671771 5.01262546,25.2155906 5.01262546,25.0897973 C5.01262546,24.9011074 5.3340082,24.7124175 5.52683784,24.6495208 C8.29072941,23.7689679 11.1188975,22.888415 13.8827891,22.0707587 C14.3970015,21.8820688 14.7183842,22.0707587 14.8469373,22.6368284 C15.4897028,25.4042805 16.0681917,28.1717325 16.7109572,30.9391845 C16.7752337,31.0020811 16.7109572,31.2536677 16.7109572,31.8197374 Z" id="Path"></path>
                <path d="M31.1168269,0 C35.7483115,0.19217056 39.5550112,2.0498193 42.029366,6.14945791 C43.9327158,9.28824372 45.7091757,12.4910864 47.4856355,15.693929 C47.9297505,16.4626113 48.3104204,16.5266681 49.0083154,16.0782702 C49.3889854,15.8220428 49.8331003,15.5658153 50.2137703,15.3736448 C50.4041053,15.3095879 50.7213302,15.2455311 50.8482202,15.3095879 C50.9751102,15.3736448 51.0385552,15.7579859 50.9751102,15.9501565 C50.3406603,18.768658 49.7062103,21.5871595 49.1352054,24.3416042 C49.0083154,24.9821728 48.6910904,25.1102865 48.1200855,24.9181159 C45.4553957,24.0853768 42.7272609,23.2526377 40.0625711,22.3558418 C39.8087911,22.2917849 39.6819012,22.0355575 39.4915662,21.9074438 C39.6819012,21.7152733 39.8087911,21.4590458 39.9991261,21.3309321 C40.6335761,20.8825342 41.775586,20.498193 41.775586,19.9857382 C41.839031,19.2811128 41.141136,18.4483737 40.7604661,17.7437484 C39.3646762,15.2455311 37.9688863,12.8113707 36.5096514,10.3772102 C33.8449616,5.82917365 28.3252471,5.82917365 25.6605573,10.3772102 C24.5819924,12.234859 23.5668725,14.0925077 22.4883076,15.8860996 C21.3462977,17.8078052 19.3795028,18.3843169 17.603043,17.3594072 C15.9534731,16.3344976 15.5093582,14.3487351 16.5879231,12.4270295 C17.793378,10.3131534 18.9353879,8.19927722 20.2042878,6.14945791 C22.8055326,2.0498193 26.5487872,0.256227413 31.1168269,0 Z" id="Path"></path>
                <path d="M44.4879164,56.7751169 C42.5684699,56.7751169 40.6490235,56.7751169 38.729577,56.7751169 C37.9617984,56.7751169 37.6418906,57.0252783 37.7058722,57.7757623 C37.7698537,58.3386252 37.7698537,58.8389479 37.7058722,59.4018109 C37.6418906,59.9646739 37.3859644,60.2148352 36.8101305,59.7770529 C34.6347578,57.8383026 32.4593851,55.8995523 30.2840125,53.960802 C29.8361416,53.58556 29.9641047,53.2728583 30.347994,52.9601567 C32.4593851,51.0839467 34.6347578,49.1451964 36.7461489,47.2689864 C36.9380936,47.1439058 37.2580013,47.0188251 37.449946,47.0188251 C37.5779091,47.0188251 37.6418906,47.3940671 37.7058722,47.6442284 C37.7058722,47.7067688 37.7058722,47.8318494 37.7058722,47.9569301 C37.7698537,50.1458417 37.7698537,50.1458417 40.0731895,50.1458417 C42.8883777,50.1458417 45.7675474,50.0833014 48.5827356,50.1458417 C54.0211673,50.2709224 56.7723739,44.7048328 54.0851488,40.7647919 C52.8694994,39.0136626 51.9097762,37.1374526 50.8220898,35.323783 C49.7344035,33.447573 50.1822743,31.383742 51.9737577,30.4456371 C53.7012595,29.5075321 55.6846876,30.0703951 56.7723739,31.946605 C57.9240418,33.8853553 59.0757097,35.8241056 60.2273776,37.7628559 C64.8340491,45.7680185 60.0354329,55.46177 50.7581083,56.7125766 C48.7106987,57.0252783 46.5993076,56.7751169 44.4879164,56.7751169 C44.4879164,56.7125766 44.4879164,56.7125766 44.4879164,56.7751169 Z" id="Path"></path>
            </g>
        </g>
    </g>
</svg>