<?xml version="1.0" encoding="UTF-8"?>
<svg width="62px" height="62px" viewBox="0 0 62 62" version="1.1" xmlns="http://www.w3.org/2000/svg" xmlns:xlink="http://www.w3.org/1999/xlink">
    <title>Group</title>
    <g id="Page-1" stroke="none" stroke-width="1" fill="none" fill-rule="evenodd">
        <g id="Page-d'acceuil-mbile" transform="translate(-177.000000, -4967.000000)" fill="#000000" fill-rule="nonzero">
            <g id="Group" transform="translate(177.000000, 4967.000000)">
                <path d="M30.9679421,0 C48.0868666,0 62,13.8777202 62,30.9678756 C62,48.0580311 48.1509824,62 31.0320579,62 C13.9131334,62 0,48.1222798 0,31.0321244 C0,13.9419689 13.8490176,0 30.9679421,0 Z M10.8996898,47.9937824 C14.2978283,44.588601 17.6959669,41.1834197 21.0299897,37.842487 C21.2864529,37.5854922 21.4146846,37.2 21.5429162,36.8787565 C22.9534643,32.7668394 24.3640124,28.5906736 25.8386763,24.4787565 C26.5439504,22.5512953 26.2233713,20.5595855 26.2874871,18.5678756 C26.2874871,18.3751295 26.0310238,18.1181347 25.8386763,17.9253886 C25.0051706,17.0901554 24.8128232,16.1264249 25.1334023,15.0984456 C25.5180972,14.0062176 26.3516029,13.2994819 27.5056877,13.2352332 C29.7497415,13.1709845 32.0579111,13.1709845 34.3019648,13.2352332 C35.3919338,13.2994819 36.2254395,13.9419689 36.6101344,15.0341969 C36.9948294,16.1264249 36.7383661,17.0259067 36.033092,17.9253886 C35.8407446,18.1181347 35.5842813,18.3751295 35.5842813,18.5678756 C35.5201655,20.1098446 35.5842813,21.5875648 35.5842813,23.0010363 C39.6876939,18.8891192 43.7269907,14.8414508 47.8304033,10.7937824 C37.9565667,2.37720207 22.1840745,2.44145078 12.1820062,12.7212435 C2.11582213,22.9367876 2.62874871,38.4849741 10.8996898,47.9937824 Z M14.1695967,51.2062176 C23.5946225,59.4943005 39.8800414,60.0725389 50.2026887,49.0860104 C60.5253361,38.0352332 58.6018614,22.2943005 51.1644261,14.1989637 C51.1003102,14.2632124 50.9720786,14.3274611 50.9079628,14.3917098 C46.483971,18.8248705 42.1240951,23.1937824 37.6359876,27.626943 C37.123061,28.1409326 37.3154085,28.5264249 37.5077559,28.9761658 C39.1747673,33.8590674 40.9058945,38.8062176 42.5729059,43.6891192 C43.4705274,46.3875648 41.9958635,48.5720207 39.1106515,48.5720207 C33.6608066,48.5720207 28.2109617,48.5720207 22.7611169,48.5720207 C21.9276112,48.5720207 21.0941055,48.2507772 20.3247156,47.865285 C19.7476732,47.5440415 19.4270941,46.9015544 19.0423992,46.4518135 C17.3753878,47.9937824 15.7724922,49.6 14.1695967,51.2062176 Z M30.8397104,46.7088083 C33.4043433,46.7088083 36.033092,46.7088083 38.5977249,46.7088083 C40.7776629,46.7088083 41.4188211,45.8735751 40.6494312,43.8176166 C39.2388831,39.7699482 37.8924509,35.7222798 36.4819028,31.6103627 C35.7125129,29.4259067 35.2637022,29.2331606 33.2119959,30.3896373 C32.6349535,30.7108808 32.1220269,31.0963731 31.5449845,31.4818653 C30.3908997,32.2528497 29.2368149,33.1523316 28.0186143,33.7948187 C27.0568769,34.3088083 25.966908,34.5658031 24.876939,34.6943005 C24.2357808,34.7585492 23.9793175,34.9512953 23.8510858,35.5295337 C22.8893485,38.4207254 21.9276112,41.2476684 20.901758,44.1388601 C20.3247156,45.8735751 20.9658738,46.773057 22.8252327,46.773057 C25.5180972,46.7088083 28.2109617,46.7088083 30.8397104,46.7088083 Z M35.327818,27.8196891 C33.6608066,24.7357513 33.532575,21.4590674 33.7249224,18.1181347 C33.7249224,17.6683938 34.1096174,17.2186528 34.3660807,16.7689119 C34.5584281,16.3834197 34.9431231,15.9979275 34.8790072,15.6766839 C34.8148914,15.3554404 34.237849,14.9699482 33.9172699,14.9699482 C31.8655636,14.9056995 29.8779731,14.9056995 27.8262668,14.9699482 C27.5056877,14.9699482 27.0568769,15.4196891 26.9286453,15.7409326 C26.8645295,15.9979275 27.1851086,16.4476684 27.377456,16.7689119 C27.5698035,17.0901554 28.0827301,17.411399 28.0827301,17.7326425 C28.0186143,20.1740933 28.467425,22.6797927 27.5698035,25.1212435 C26.6080662,27.6911917 25.7745605,30.3253886 24.8128232,33.1523316 C25.582213,32.8953368 26.2233713,32.8310881 26.7362978,32.5740933 C27.8262668,31.9958549 28.85212,31.2891192 29.8779731,30.5823834 C31.4808687,29.361658 33.0837642,28.2051813 35.327818,27.8196891 Z" id="Shape"></path>
                <path d="M33.0833333,34 C33.5833333,34.6431566 34,34.9647349 34,35.3506289 C34,35.6078915 33.3333333,36.0581011 33,35.9937855 C32.6666667,35.9937855 32,35.5435759 32,35.2863132 C32,34.9004193 32.5,34.5788409 33.0833333,34 Z" id="Path"></path>
                <path d="M32.5212496,41 C32.7798043,41.5980737 33.0383591,41.9303369 32.9952667,42.3290527 C32.9952667,42.5948632 32.6074345,43.0600316 32.4781571,42.993579 C32.2626948,42.9271264 32.00414,42.4619579 32.00414,42.1296948 C31.9610475,41.8638842 32.2626948,41.5316211 32.5212496,41 Z" id="Path"></path>
                <path d="M25.003987,44 C24.5059806,43.483871 23.924973,43.0967742 24.0079741,42.9032258 C24.0909752,42.5806452 24.6719827,42.3225806 25.003987,42 C25.3359914,42.3225806 25.9169989,42.5806452 26,42.9032258 C26,43.0967742 25.5019935,43.483871 25.003987,44 Z" id="Path"></path>
                <path d="M30,38 C29.4666667,38.4960288 29.0666667,39.0747291 28.8666667,38.9920576 C28.5333333,38.9093861 28.2666667,38.3306859 28,37.9173285 C28.3333333,37.5866427 28.6,37.0906139 28.9333333,37.0079424 C29.1333333,36.9252709 29.4666667,37.5039712 30,38 Z" id="Path"></path>
                <path d="M31,21 C31.5,21.531814 32,21.8641977 32,22.1301047 C31.9166667,22.4624884 31.4166667,22.9278256 31,22.9943024 C30.6666667,23.0607791 30,22.5289652 30,22.2630582 C30,21.9306744 30.5,21.5982907 31,21 Z" id="Path"></path>
                <path d="M32.5215251,25 C32.7799311,25.5982907 33.0383371,25.9306744 32.9952694,26.1965814 C32.9522017,26.5289652 32.6507281,26.9278256 32.4784575,26.9943024 C32.3492545,27.0607791 32.0047132,26.5289652 32.0047132,26.2630582 C31.9616455,25.9306744 32.2200515,25.5982907 32.5215251,25 Z" id="Path"></path>
            </g>
        </g>
    </g>
</svg>